# xmcd
#
# Track frame offsets:
#	150
#	21365
#	37235
#	54202
#	71592
#	87025
#	102107
#	119740
#	134432
#	145840
#	166745
#	182605
#	202720
#	228852
#	242632
#	266307
#	285735
#	309120
#
# Disc length: 4399 seconds
#
# Revision: 3
# Processed by: cddbd v1.5.1PL2 Copyright (c) Steve Scherf et al.
# Submitted via: Rip'N'TagIt 1.4.0.0 
#
DISCID=ed112d12
DTITLE=Gladys Knight - The Greatest Hits
DYEAR=1998
DGENRE=Soul
TTITLE0=Midnight Train To Georgia
TTITLE1=I았e Got To Use My Imagination
TTITLE2=Best Thing That Ever Happened To Me
TTITLE3=So Sad The Song
TTITLE4=Come Back And Finish What You았e Started
TTITLE5=I Feel A Song (In My Heart)
TTITLE6=Love Finds It압 Own Way
TTITLE7=Baby Don앖 Change Your Mind
TTITLE8=Part Time Love
TTITLE9=Make Yours A Happy Home
TTITLE10=Nobody But You
TTITLE11=Where Peaceful Waters Flow
TTITLE12=It압 A Better Than Good Time
TTITLE13=The One and Only
TTITLE14=Home Is Where The Heart Is
TTITLE15=On and On
TTITLE16=Money
TTITLE17=Try To Remember/The Way We Were
EXTD=
EXTT0=
EXTT1=
EXTT2=
EXTT3=
EXTT4=
EXTT5=
EXTT6=
EXTT7=
EXTT8=
EXTT9=
EXTT10=
EXTT11=
EXTT12=
EXTT13=
EXTT14=
EXTT15=
EXTT16=
EXTT17=
PLAYORDER=
